<?xml version="1.0" encoding="utf-8"?>
<!-- Generator: Adobe Illustrator 19.2.0, SVG Export Plug-In . SVG Version: 6.00 Build 0)  -->
<svg version="1.1" id="Layer_1" xmlns="http://www.w3.org/2000/svg" xmlns:xlink="http://www.w3.org/1999/xlink" x="0px" y="0px"
	 viewBox="0 0 221.6 70" style="enable-background:new 0 0 221.6 70;" xml:space="preserve">
<style type="text/css">
	.st1{fill:#006599;}
	.st2{fill:#0084C7;}
	.st3{fill:#FFFFFF;}
	.st4{fill:#004366;}
	.st5{fill:none;}
</style>
<path id="callbox-text" d="M105.1,39.7l0,0.1c0,2.6-0.7,4.7-2.2,6.2c-1.5,1.5-3.6,2.3-6.3,2.3c-2.7,0-4.9-0.9-6.6-2.8
	c-1.7-1.9-2.5-4.3-2.5-7.3v-4.8c0-3,0.8-5.4,2.5-7.3c1.6-1.9,3.8-2.8,6.4-2.8c2.8,0,4.9,0.8,6.5,2.3c1.6,1.5,2.3,3.7,2.3,6.3l0,0.1
	h-4.4c0-1.6-0.4-2.8-1.1-3.7c-0.7-0.9-1.8-1.3-3.3-1.3c-1.3,0-2.4,0.6-3.2,1.8C92.4,30,92,31.6,92,33.4v4.9c0,1.9,0.4,3.4,1.2,4.6
	c0.8,1.2,2,1.8,3.4,1.8c1.4,0,2.4-0.4,3.1-1.2c0.7-0.8,1-2,1-3.7H105.1z M120.3,42.8h-7.9l-1.5,5.3h-4.5l7.7-24.4h4.6l7.7,24.4h-4.5
	L120.3,42.8z M113.6,38.9h5.6l-2.8-9.6h-0.1L113.6,38.9z M132.9,44.3h10V48h-14.5V23.6h4.5V44.3z M150,44.3h10V48h-14.5V23.6h4.5
	V44.3z M162.5,48V23.6h7.6c2.6,0,4.7,0.6,6.2,1.7c1.5,1.1,2.2,2.8,2.2,5c0,1.1-0.3,2.1-0.8,3c-0.5,0.9-1.3,1.6-2.4,2
	c1.3,0.3,2.4,1,3,2c0.7,1,1,2.2,1,3.6c0,2.3-0.7,4.1-2.1,5.3c-1.4,1.2-3.4,1.8-6,1.8H162.5z M167,33.9h3.2c1.2,0,2.1-0.3,2.8-0.8
	c0.6-0.5,1-1.3,1-2.3c0-1.1-0.3-2-1-2.5c-0.7-0.5-1.6-0.8-2.9-0.8H167V33.9z M167,37.3v7h4.1c1.2,0,2.1-0.3,2.7-0.8
	c0.6-0.6,0.9-1.4,0.9-2.5c0-1.2-0.3-2.1-0.8-2.7c-0.5-0.6-1.4-0.9-2.5-0.9H167z M200.8,38c0,3-0.9,5.5-2.6,7.4c-1.7,2-4,2.9-6.8,2.9
	c-2.8,0-5-1-6.7-2.9c-1.7-2-2.6-4.4-2.6-7.4v-4.4c0-3,0.9-5.5,2.6-7.4c1.7-2,4-2.9,6.7-2.9c2.8,0,5,1,6.8,2.9c1.7,2,2.6,4.4,2.6,7.4
	V38z M196.3,33.6c0-1.9-0.4-3.5-1.3-4.7c-0.9-1.2-2.1-1.8-3.6-1.8c-1.5,0-2.7,0.6-3.6,1.8c-0.8,1.2-1.3,2.8-1.3,4.7v4.4
	c0,1.9,0.4,3.5,1.3,4.7c0.9,1.2,2,1.8,3.6,1.8c1.5,0,2.7-0.6,3.6-1.8c0.9-1.2,1.3-2.8,1.3-4.7V33.6z M211.8,32.3l4.2-8.6h5.2
	l-6.6,12.1l7,12.3h-5.4l-4.3-8.8l-4.3,8.8h-5.2l6.8-12.3l-6.6-12.1h5.2L211.8,32.3z"/>
<g id="logo">
	<path class="st1" d="M38.8,68.1c-2.5,2.5-6.7,2.5-9.2,0L1.9,40.4c-2.5-2.5-2.5-6.7,0-9.2L29.6,3.5c2.5-2.5,6.7-2.5,9.2,0l27.7,27.7
		c2.5,2.5,2.5,6.7,0,9.2L38.8,68.1z"/>
	<path class="st2" d="M40.4,66.5c-2.5,2.5-6.7,2.5-9.2,0L3.5,38.8c-2.5-2.5-2.5-6.7,0-9.2L31.2,1.9c2.5-2.5,6.7-2.5,9.2,0l27.7,27.7
		c2.5,2.5,2.5,6.7,0,9.2L40.4,66.5z"/>
	<g>
		<path class="st3" d="M25.8,17.7c-3.2,0-5.8,1.2-7.8,3.7c-2,2.4-3,5.6-3,9.5v6.7c0,3.9,1,7.1,3.1,9.5c2.1,2.4,4.8,3.7,8.1,3.7
			c3.3,0,5.8-1,7.5-3c1.7-2,2.7-4.9,2.8-8.6l0-0.1h-6c-0.1,2.1-0.4,3.6-1.1,4.6c-0.6,1-1.7,1.4-3.2,1.4c-1.5,0-2.8-0.7-3.6-2
			c-0.9-1.4-1.3-3.2-1.3-5.4v-6.7c0-2.2,0.4-4,1.2-5.3c0.8-1.4,1.9-2,3.3-2c1.7,0,2.8,0.5,3.5,1.5c0.7,1,1.1,2.6,1.2,4.6h6l0-0.1
			c-0.2-3.8-1.2-6.7-3-8.7C31.7,18.7,29.2,17.7,25.8,17.7z"/>
		<path class="st3" d="M55.5,36.4c-0.7-1.3-1.9-2.2-3.5-2.6c1.2-0.6,2.2-1.5,2.8-2.8c0.6-1.2,0.9-2.6,0.9-4.2c0-3-0.9-5.3-2.8-6.8
			c-1.9-1.5-4.4-2.3-7.8-2.3H32.9c3.4,1.8,5.7,5.4,5.7,9.6v14.1c0,2.5-0.9,5-2.5,7c-0.8,0.9-1.6,1.7-2.6,2.3h13
			c3.3,0,5.8-0.8,7.5-2.5c1.7-1.6,2.6-4.1,2.6-7.3C56.6,39.2,56.2,37.7,55.5,36.4z M42.2,23.6h3c1.5,0,2.6,0.3,3.3,1
			c0.7,0.6,1.1,1.7,1.1,3.1c0,1.2-0.3,2.2-1,2.8c-0.7,0.6-1.8,1-3.2,1h-3.1V23.6z M49.4,43.9c-0.7,0.6-1.7,1-3,1h-4.3v-8.3h4.6
			c1.3,0,2.2,0.4,2.8,1.1c0.6,0.7,0.9,1.8,0.9,3.3C50.4,42.2,50.1,43.2,49.4,43.9z"/>
	</g>
	<path class="st4" d="M42.2,23.6h3c1.5,0,2.6,0.3,3.3,1c0.7,0.6,1.1,1.7,1.1,3.1c0,1.2-0.3,2.2-1,2.8c-0.7,0.6-1.8,1-3.2,1h-3.1
		V23.6z"/>
	<path class="st4" d="M49.4,43.9c-0.7,0.6-1.7,1-3,1h-4.3v-8.3h4.6c1.3,0,2.2,0.4,2.8,1.1c0.6,0.7,0.9,1.8,0.9,3.3
		C50.4,42.2,50.1,43.2,49.4,43.9z"/>
	<path class="st5" d="M32.9,17.7L32.9,17.7l12.5,0c-0.1,0-0.1,0-0.2,0H32.9z"/>
	<path class="st1" d="M69.5,36.6L53.9,21c1.2,1.5,1.8,3.4,1.8,5.8c0,1.6-0.3,3-0.9,4.2c-0.6,1.2-1.5,2.1-2.8,2.8
		c1.6,0.4,2.7,1.3,3.5,2.6c0.7,1.3,1.1,2.8,1.1,4.6c0,3.2-0.9,5.7-2.6,7.3c-1.8,1.6-4.3,2.5-7.5,2.5h-13c1-0.6,1.9-1.4,2.6-2.3
		c1.6-2,2.5-4.4,2.5-7V27.3c0-4.1-2.3-7.8-5.7-9.6l-7.3,0l0,0c0.1,0,0.1,0,0.2,0c3.4,0,6,1,7.7,3.1c1.8,2,2.8,4.9,3,8.7l0,0.1h-6
		C30.4,27.5,30,26,29.3,25c-0.7-1-1.9-1.5-3.5-1.5c-1.4,0-2.5,0.7-3.3,2c-0.8,1.4-1.2,3.1-1.2,5.3v6.7c0,2.2,0.4,4,1.3,5.4
		c0.9,1.4,2.1,2,3.6,2c1.5,0,2.6-0.5,3.2-1.4c0.6-1,1-2.5,1.1-4.6h6l0,0.1c-0.1,3.8-1,6.6-2.8,8.6c-1.7,2-4.2,3-7.5,3
		c-2.8,0-5.2-0.9-7.1-2.6l19.6,19.6c0.6-0.3,1.2-0.7,1.7-1.2l27.7-27.7C68.7,38.2,69.2,37.4,69.5,36.6z"/>
	<path class="st4" d="M53.9,21c1.2,1.5,1.8,3.4,1.8,5.8c0,1.6-0.3,3-0.9,4.2c-0.6,1.2-1.5,2.1-2.8,2.8c1.6,0.4,2.7,1.3,3.5,2.6
		c0.7,1.3,1.1,2.8,1.1,4.6c0,3.2-0.9,5.7-2.6,7.3c-1.8,1.6-4.3,2.5-7.5,2.5h-13l11.4,11.4l11.4-11.4l11.9-11.9
		c0.6-0.6,1.1-1.4,1.4-2.2L53.9,21z"/>
</g>
</svg>
