<?xml version="1.0" encoding="utf-8"?>
<!-- Generator: Adobe Illustrator 19.2.0, SVG Export Plug-In . SVG Version: 6.00 Build 0)  -->
<svg version="1.1" id="way2cu_logo" xmlns="http://www.w3.org/2000/svg" xmlns:xlink="http://www.w3.org/1999/xlink" x="0px" y="0px"
	 viewBox="0 0 86.6 100" style="enable-background:new 0 0 86.6 100;" xml:space="preserve">
<style type="text/css">
	.st0{fill:url(#SVGID_1_);}
	.st1{fill:url(#SVGID_2_);}
	.st2{fill:url(#SVGID_3_);}
	.st3{fill:url(#SVGID_4_);}
	.st4{fill:url(#SVGID_5_);}
	.st5{fill:url(#SVGID_6_);}
	.st6{fill:url(#SVGID_7_);}
	.st7{fill:url(#SVGID_8_);}
	.st8{fill:url(#SVGID_9_);}
	.st9{fill:url(#SVGID_10_);}
	.st10{fill:url(#SVGID_11_);}
	.st11{fill:url(#SVGID_12_);}
	.st12{fill:url(#SVGID_13_);}
	.st13{fill:url(#SVGID_14_);}
	.st14{fill:url(#SVGID_15_);}
	.st15{fill:url(#SVGID_16_);}
	.st16{fill:url(#SVGID_17_);}
	.st17{fill:url(#SVGID_18_);}
	.st18{fill:url(#SVGID_19_);}
	.st19{fill:url(#SVGID_20_);}
	.st20{fill:url(#SVGID_21_);}
	.st21{fill:url(#SVGID_22_);}
	.st22{fill:url(#SVGID_23_);}
	.st23{fill:url(#SVGID_24_);}
	.st24{fill:url(#SVGID_25_);}
	.st25{fill:url(#SVGID_26_);}
	.st26{opacity:0.2;fill:#FFFFFF;enable-background:new    ;}
	.st27{opacity:0.3;fill:#FFFFFF;enable-background:new    ;}
	.st28{opacity:0.77;fill:#FFFFFF;enable-background:new    ;}
	.st29{fill:#FFFFFF;}
</style>
<g>
	<g>
		
			<linearGradient id="SVGID_1_" gradientUnits="userSpaceOnUse" x1="4510.2471" y1="-967.5714" x2="8071.2573" y2="-967.5714" gradientTransform="matrix(2.430289e-02 0 0 2.430289e-02 -109.612 73.5148)">
			<stop  offset="0" style="stop-color:#008B93"/>
			<stop  offset="1" style="stop-color:#00A1AD"/>
		</linearGradient>
		<path class="st0" d="M43.3,0L0,25v50l43.3,25l43.3-25V25L43.3,0z M84,73.5L43.3,97L2.6,73.5v-47L43.3,3L84,26.5V73.5z M81.4,72
			L43.3,94L5.1,72V28L43.3,6l38.1,22V72z"/>
		
			<linearGradient id="SVGID_2_" gradientUnits="userSpaceOnUse" x1="-226.1728" y1="-44.0825" x2="-219.8819" y2="-50.3734" gradientTransform="matrix(15.4809 0 0 -10.0614 3483.8252 -463.8557)">
			<stop  offset="0" style="stop-color:#00A5B1"/>
			<stop  offset="1" style="stop-color:#00A1AE"/>
		</linearGradient>
		<polygon class="st1" points="63.9,17.8 43.3,6 28.7,14.3 43.2,33.9 		"/>
		
			<linearGradient id="SVGID_3_" gradientUnits="userSpaceOnUse" x1="-225.7369" y1="-43.6465" x2="-219.4481" y2="-49.9375" gradientTransform="matrix(15.4809 0 0 -10.0614 3483.8252 -463.8557)">
			<stop  offset="0" style="stop-color:#00A5B1"/>
			<stop  offset="1" style="stop-color:#00A1AE"/>
		</linearGradient>
		<polygon class="st2" points="43.3,3 66.1,16.1 68.3,14.4 43.3,0 25.7,10.2 27.2,12.3 		"/>
		
			<linearGradient id="SVGID_4_" gradientUnits="userSpaceOnUse" x1="-218.9989" y1="-44.6441" x2="-212.7048" y2="-50.9403" gradientTransform="matrix(7.4367 0 0 -10.3287 1615.7821 -477.7892)">
			<stop  offset="0" style="stop-color:#008591"/>
			<stop  offset="1" style="stop-color:#00A3B0"/>
		</linearGradient>
		<polygon class="st3" points="28.7,14.3 5.1,28 5.1,35.4 43.1,33.9 		"/>
		
			<linearGradient id="SVGID_5_" gradientUnits="userSpaceOnUse" x1="-219.1543" y1="-44.8183" x2="-212.8696" y2="-51.1019" gradientTransform="matrix(7.4367 0 0 -10.3287 1615.7821 -477.7892)">
			<stop  offset="0" style="stop-color:#008591"/>
			<stop  offset="1" style="stop-color:#00A3B0"/>
		</linearGradient>
		<polygon class="st4" points="2.5,35.5 2.5,26.5 27.2,12.3 25.6,10.2 0,25 0,25 0.7,35.6 		"/>
		
			<linearGradient id="SVGID_6_" gradientUnits="userSpaceOnUse" x1="-214.8389" y1="-47.9643" x2="-208.5396" y2="-54.2625" gradientTransform="matrix(6.7562 0 0 -11.3981 1458.4471 -523.4695)">
			<stop  offset="0" style="stop-color:#008D99"/>
			<stop  offset="1" style="stop-color:#00A5B2"/>
		</linearGradient>
		<polygon class="st5" points="5.1,35.4 5.1,63.9 6.5,72.9 22.1,81.8 43.1,33.9 		"/>
		
			<linearGradient id="SVGID_7_" gradientUnits="userSpaceOnUse" x1="-216.8563" y1="-49.9931" x2="-210.5643" y2="-56.284" gradientTransform="matrix(6.7562 0 0 -11.3981 1458.4471 -523.4695)">
			<stop  offset="0" style="stop-color:#008D99"/>
			<stop  offset="1" style="stop-color:#00A5B2"/>
		</linearGradient>
		<polygon class="st6" points="7.1,76.1 7.6,79.4 20.1,86.6 21.1,84.2 		"/>
		
			<linearGradient id="SVGID_8_" gradientUnits="userSpaceOnUse" x1="-215.9642" y1="-49.0948" x2="-209.6722" y2="-55.3846" gradientTransform="matrix(6.7562 0 0 -11.3981 1458.4471 -523.4695)">
			<stop  offset="0" style="stop-color:#008D99"/>
			<stop  offset="1" style="stop-color:#00A5B2"/>
		</linearGradient>
		<polygon class="st7" points="0.7,35.6 2.5,47.5 2.5,35.5 		"/>
		
			<linearGradient id="SVGID_9_" gradientUnits="userSpaceOnUse" x1="-217.1452" y1="-48.6593" x2="-210.8532" y2="-54.9502" gradientTransform="matrix(8.1172 0 0 -11.3981 1776.2339 -523.4695)">
			<stop  offset="0" style="stop-color:#008994"/>
			<stop  offset="1" style="stop-color:#00A1AD"/>
		</linearGradient>
		<polygon class="st8" points="43.2,33.9 22.1,81.8 39.1,91.7 62.8,79.6 		"/>
		
			<linearGradient id="SVGID_10_" gradientUnits="userSpaceOnUse" x1="-218.819" y1="-50.3331" x2="-212.527" y2="-56.624" gradientTransform="matrix(8.1172 0 0 -11.3981 1776.2339 -523.4695)">
			<stop  offset="0" style="stop-color:#008994"/>
			<stop  offset="1" style="stop-color:#00A1AD"/>
		</linearGradient>
		<polygon class="st9" points="21.1,84.2 20.1,86.6 33.7,94.4 36.4,93.1 		"/>
		
			<linearGradient id="SVGID_11_" gradientUnits="userSpaceOnUse" x1="-215.2728" y1="-50.1934" x2="-208.9819" y2="-56.4832" gradientTransform="matrix(8.1172 0 0 -9.7455 1776.2339 -430.0612)">
			<stop  offset="0" style="stop-color:#00AAB8"/>
			<stop  offset="1" style="stop-color:#01A8B5"/>
		</linearGradient>
		<polygon class="st10" points="39.1,91.7 43.3,94.1 61.6,83.5 62.8,79.6 		"/>
		
			<linearGradient id="SVGID_12_" gradientUnits="userSpaceOnUse" x1="-215.777" y1="-50.6955" x2="-209.486" y2="-56.9865" gradientTransform="matrix(8.1172 0 0 -9.7455 1776.2339 -430.0612)">
			<stop  offset="0" style="stop-color:#00AAB8"/>
			<stop  offset="1" style="stop-color:#01A8B5"/>
		</linearGradient>
		<polygon class="st11" points="60.4,87.1 43.3,97 36.4,93.1 33.7,94.4 43.3,100 59.3,90.7 		"/>
		
			<linearGradient id="SVGID_13_" gradientUnits="userSpaceOnUse" x1="-205.5714" y1="-46.309" x2="-199.2817" y2="-52.5999" gradientTransform="matrix(3.6697 0 0 -21.581 738.0342 -1064.2478)">
			<stop  offset="0" style="stop-color:#009AA6"/>
			<stop  offset="1" style="stop-color:#01A1AE"/>
		</linearGradient>
		<polygon class="st12" points="0,25 0,37.7 0.7,35.6 		"/>
		
			<linearGradient id="SVGID_14_" gradientUnits="userSpaceOnUse" x1="-214.0707" y1="-47.7589" x2="-207.7735" y2="-54.0551" gradientTransform="matrix(5.4195 0 0 -11.2522 1144.3719 -515.6021)">
			<stop  offset="0" style="stop-color:#0196A2"/>
			<stop  offset="1" style="stop-color:#047F88"/>
		</linearGradient>
		<polygon class="st13" points="2.5,73.5 2.5,47.5 0.7,35.6 0,37.7 0,75 7.6,79.4 7.1,76.1 		"/>
		
			<linearGradient id="SVGID_15_" gradientUnits="userSpaceOnUse" x1="-214.2002" y1="-47.8822" x2="-207.9093" y2="-54.1742" gradientTransform="matrix(5.4195 0 0 -11.2522 1144.3719 -515.6021)">
			<stop  offset="0" style="stop-color:#0196A2"/>
			<stop  offset="1" style="stop-color:#047F88"/>
		</linearGradient>
		<polygon class="st14" points="5.1,72 6.5,72.9 5.1,63.9 		"/>
		
			<linearGradient id="SVGID_16_" gradientUnits="userSpaceOnUse" x1="-218.1041" y1="-51.4399" x2="-211.8121" y2="-57.7318" gradientTransform="matrix(11.1064 0 0 -9.7698 2475.5093 -431.3521)">
			<stop  offset="0" style="stop-color:#00939D"/>
			<stop  offset="1" style="stop-color:#03B9C6"/>
		</linearGradient>
		<polygon class="st15" points="60.4,87.1 59.3,90.7 78.7,79.6 73.5,79.6 		"/>
		
			<linearGradient id="SVGID_17_" gradientUnits="userSpaceOnUse" x1="-218.1019" y1="-51.4388" x2="-211.811" y2="-57.7307" gradientTransform="matrix(11.1064 0 0 -9.7698 2475.5093 -431.3521)">
			<stop  offset="0" style="stop-color:#00939D"/>
			<stop  offset="1" style="stop-color:#03B9C6"/>
		</linearGradient>
		<polygon class="st16" points="62.8,79.6 61.6,83.5 68.4,79.6 		"/>
		
			<linearGradient id="SVGID_18_" gradientUnits="userSpaceOnUse" x1="-186.9933" y1="-45.9705" x2="-180.7024" y2="-52.2593" gradientTransform="matrix(3.3295 0 0 -7.2666 669.4496 -308.1306)">
			<stop  offset="0" style="stop-color:#14BCC9"/>
			<stop  offset="1" style="stop-color:#08BCCB"/>
		</linearGradient>
		<polygon class="st17" points="43.2,33.9 62.8,79.6 64.1,44.6 		"/>
		
			<linearGradient id="SVGID_19_" gradientUnits="userSpaceOnUse" x1="-215.1212" y1="-44.5137" x2="-208.8313" y2="-50.8036" gradientTransform="matrix(8.0443 0 0 -7.947 1764.3096 -349.8431)">
			<stop  offset="0" style="stop-color:#008B93"/>
			<stop  offset="1" style="stop-color:#00A1AD"/>
		</linearGradient>
		<polygon class="st18" points="64.1,44.6 75.9,24.8 63.9,17.8 43.2,33.9 		"/>
		
			<linearGradient id="SVGID_20_" gradientUnits="userSpaceOnUse" x1="-213.6288" y1="-43.0224" x2="-207.3389" y2="-49.3133" gradientTransform="matrix(8.0443 0 0 -7.947 1764.3096 -349.8431)">
			<stop  offset="0" style="stop-color:#008B93"/>
			<stop  offset="1" style="stop-color:#00A1AD"/>
		</linearGradient>
		<polygon class="st19" points="77.2,22.5 78.5,20.3 68.3,14.4 66.1,16.1 		"/>
		
			<linearGradient id="SVGID_21_" gradientUnits="userSpaceOnUse" x1="-213.2374" y1="-48.3588" x2="-206.9548" y2="-54.6423" gradientTransform="matrix(8.0929 0 0 -5.5654 1778.7075 -217.7629)">
			<stop  offset="0" style="stop-color:#05B6C5"/>
			<stop  offset="1" style="stop-color:#15BDCC"/>
		</linearGradient>
		<polygon class="st20" points="84,73.5 84,73.5 73.5,79.6 78.7,79.6 86.6,75 86.6,60.4 84,58.6 		"/>
		
			<linearGradient id="SVGID_22_" gradientUnits="userSpaceOnUse" x1="-213.5574" y1="-48.6747" x2="-207.2581" y2="-54.976" gradientTransform="matrix(8.0929 0 0 -5.5654 1778.7075 -217.7629)">
			<stop  offset="0" style="stop-color:#05B6C5"/>
			<stop  offset="1" style="stop-color:#15BDCC"/>
		</linearGradient>
		<polygon class="st21" points="62.8,79.6 68.4,79.6 81.5,72.1 81.5,72.1 81.5,56.8 64.2,44.6 		"/>
		
			<linearGradient id="SVGID_23_" gradientUnits="userSpaceOnUse" x1="-207.4835" y1="-45.2617" x2="-201.1873" y2="-51.5579" gradientTransform="matrix(6.1729 0 0 -7.947 1333.0798 -349.8431)">
			<stop  offset="0" style="stop-color:#00AEBC"/>
			<stop  offset="1" style="stop-color:#00B5C1"/>
		</linearGradient>
		<polygon class="st22" points="81.5,37.9 81.5,28 75.9,24.8 64.2,44.6 		"/>
		
			<linearGradient id="SVGID_24_" gradientUnits="userSpaceOnUse" x1="-206.1346" y1="-43.9159" x2="-199.8489" y2="-50.2016" gradientTransform="matrix(6.1729 0 0 -7.947 1333.0798 -349.8431)">
			<stop  offset="0" style="stop-color:#00AEBC"/>
			<stop  offset="1" style="stop-color:#00B5C1"/>
		</linearGradient>
		<polygon class="st23" points="84,26.5 84,36.8 86.6,35.9 86.6,25 78.5,20.3 77.2,22.5 		"/>
		
			<linearGradient id="SVGID_25_" gradientUnits="userSpaceOnUse" x1="-211.5099" y1="-47.222" x2="-205.2181" y2="-53.514" gradientTransform="matrix(7.8741 0 0 -7.947 1728.1335 -344.302)">
			<stop  offset="0" style="stop-color:#4AC4DA"/>
			<stop  offset="1" style="stop-color:#36C0D3"/>
		</linearGradient>
		<polygon class="st24" points="81.5,56.8 81.5,37.9 64.2,44.6 		"/>
		
			<linearGradient id="SVGID_26_" gradientUnits="userSpaceOnUse" x1="-211.0968" y1="-46.8088" x2="-204.8142" y2="-53.0924" gradientTransform="matrix(7.8741 0 0 -7.947 1728.1335 -344.302)">
			<stop  offset="0" style="stop-color:#4AC4DA"/>
			<stop  offset="1" style="stop-color:#36C0D3"/>
		</linearGradient>
		<polygon class="st25" points="84,58.6 86.6,60.4 86.6,35.9 84,36.8 		"/>
		<polygon class="st26" points="27.4,12.1 25.9,10 25.5,10.3 27,12.4 		"/>
		<polygon class="st26" points="0.2,24.9 0,25 0,28.9 0.4,35.3 0.4,35.3 0.4,35.6 0,36.9 0,38.5 0.6,36.7 2.5,49.1 2.5,45.9 
			0.9,35.8 2.5,35.8 2.5,35.3 0.9,35.3 		"/>
		<polygon class="st26" points="5.1,65.5 6.2,72.7 6.8,73 5.1,62.2 		"/>
		<polygon class="st26" points="6.8,76 7.3,79.2 7.9,79.5 7.4,76.3 		"/>
		<polygon class="st26" points="78.7,20.5 78.3,20.2 77,22.4 77.4,22.7 		"/>
		<polygon class="st26" points="68.5,14.6 68,14.3 65.8,16 66.3,16.3 		"/>
		<path class="st26" d="M64.8,44.1l6.2-10.4l5.2-8.8l-0.4-0.3L64.1,44.2l-0.2-0.1v0.1l-10.5-5.4l-9.7-5L64.1,18l-0.5-0.3L43.3,33.5
			l-0.1-0.2l-0.1,0.2L28.9,14.2l-0.4,0.3l14.2,19.2L5.1,35.1v0.5l37.7-1.5L32.6,57.4L21.9,81.7l0.4,0.3l20.8-47.4l19.2,45l-23.6,12
			l0.5,0.3l23-11.7l-1.1,3.6l0.7-0.4l0.9-3l0.2,0.4l0-0.9h4.9l0.9-0.5H63l0.1-0.3l-0.2,0.1L64.3,45l17.1,12v-0.6l-8.8-6.2l-8-5.6
			l16.8-6.6v-0.5l-5.7,2.2L64.8,44.1z M62.6,78.5l-18.8-44l9.6,4.9l10.5,5.4l-0.3,0.4l0.3-0.1L62.6,78.5z"/>
		<polygon class="st26" points="73.1,79.8 78.2,79.8 79.1,79.3 74,79.3 		"/>
		<polygon class="st26" points="84,58.9 86.6,60.7 86.6,60.1 84,58.3 		"/>
		<polygon class="st26" points="84,36.6 84,37.1 86.6,36.1 86.6,35.6 		"/>
		<polygon class="st26" points="19.8,86.5 20.3,86.7 21.3,84.3 20.9,84.1 		"/>
		<polygon class="st26" points="59,90.9 59.7,90.6 60.8,86.9 60.1,87.3 		"/>
		<polygon class="st26" points="33.4,94.3 33.9,94.6 36.7,93.2 36.1,92.9 		"/>
		<path class="st26" d="M0,55.6V55l2.5-2.2v0.7L0,55.6z M86.6,29.2v-0.6L84,27.2v0.6l0,0L86.6,29.2z M49.6,9.6L48.5,9L39.7,8
			l-0.8,0.4L49.6,9.6z M0,73.3v0.9l0.9,1.4l1,0.6L0,73.3z M53.6,6l-0.2,2.8l0.8,0.5l1.4-2.2l-0.4-0.3L54,8.8l0.2-2.5L53.6,6z
			 M86.6,49.4L84,49.7v0.5l2.5-0.3V49.4z M10.1,77.9l10.8,9.2l2.4,1.4l-10.8-9.2L10.1,77.9z M35.4,7.6L31,7.1l-0.8,0.4L34.6,8
			L35.4,7.6z M2.5,71.4v-0.7L0,68.6v0.7l2.2,1.9L2.5,71.4z M5.1,50.6v0.7l47.2-40.1l-0.4-0.3L21.1,37L5.1,50.6z M30.2,57.3l51.3-6.8
			V50l-3.6,0.5L5.1,60.1v0.5L30.2,57.3z M0,61.3L2.5,61v-0.5L0,60.8V61.3z"/>
		<polygon class="st27" points="0,62 0,63.9 1.4,69 0.6,68.3 1.2,69.3 0,68.8 0,69.4 0.7,69.6 0,69.7 0,70.2 1.1,70.1 1,70.1 
			1.7,70 1.7,70.2 1.8,70.1 2.5,71.2 2.5,70 2.5,70 2.5,70 2.5,68.8 2,69.3 		"/>
		<polygon class="st27" points="36.8,3.7 29.1,8.2 8.3,21.8 0,27.3 0,27.9 8,22.6 		"/>
		<polygon class="st27" points="43.3,0 43.1,0.1 43.5,0.1 		"/>
		<polygon class="st27" points="80.8,21.6 79.4,20.8 71.5,19.3 72.9,20.1 		"/>
		<polygon class="st27" points="0,34.1 2.5,34.4 2.5,33.9 0,33.6 		"/>
		<polygon class="st27" points="63.2,11.5 62.7,11.2 59.9,12.5 60.4,12.8 		"/>
		<polygon class="st27" points="42.3,0.7 44.4,3.6 45.5,4.2 42.7,0.3 41.8,0.8 41.6,4 42.1,3.7 		"/>
		<polygon class="st27" points="84,53.1 86.6,50.6 86.6,49.9 84,52.4 		"/>
		<polygon class="st27" points="84,34.3 84,36 86.6,27.5 86.6,25.7 		"/>
		<polygon class="st27" points="84,65.9 86.6,67.8 86.6,67.2 84,65.2 		"/>
		<polygon class="st27" points="12.8,79.4 23.6,88.6 26,90 15.2,80.8 		"/>
		<polygon class="st27" points="5.2,75 8.6,80 9.6,80.5 6.2,75.6 		"/>
		<path class="st27" d="M53.9,16.3L65,18.5l-1.4-0.8l-9.4-1.9l3.4-1.6l-0.5-0.3l-3.5,1.7l-0.1-0.2l0,0l-4.4-6.2l-1-0.6l5.1,7.2
			L52.7,16l0.4,0.1l-6.7,10.3l-6.9,10.8l2.4-30.3l-0.5,0.3l-2.5,30.7L5.1,34.2v0.5l33.4,3.6l-19,16.1L5.1,66.7v0.7l33.7-28.6v0.4
			l0.4-0.7l17.9,10.4l18.7,10.9l-15.6,2.1L5.1,69.1v0.5l36.1-4.8l35.1-4.6l-6.3,18.5l0.7-0.4l6.1-17.8v0l0.1-0.3l4.8,3.6v-0.7
			L77.2,60h0.1L77,59.8l4.5-4.3v-0.7L77.1,59l4.4-14.4v-1.7l-4.9,16.4L53.9,16.3z M39.6,38l0.2-0.2l-0.2,0l7.1-10.9l6.8-10.5
			L76,59.2L39.6,38z"/>
		<polygon class="st27" points="67.4,86.1 68,85.8 69.3,82 68.6,82.4 		"/>
		<path class="st28" d="M0,68.7c0.2-0.2,0.4-0.2,0.7-0.2C1.4,68.5,2,69,2,69.7S1.4,71,0.7,71c-0.3,0-0.5-0.1-0.7-0.2
			C0,70.8,0,68.7,0,68.7z M41.4,1.1c0.2,0.2,0.5,0.3,0.8,0.3c0.7,0,1.3-0.6,1.3-1.3l0,0L43.3,0L41.4,1.1z M37.9,37.9
			c0,0.7,0.6,1.3,1.3,1.3c0.7,0,1.3-0.6,1.3-1.3s-0.6-1.3-1.3-1.3C38.4,36.6,37.9,37.2,37.9,37.9z M63.7,79.8c0-0.9-0.8-1.7-1.8-1.7
			c-1,0-1.8,0.8-1.8,1.7c0,1,0.8,1.7,1.8,1.7C63,81.5,63.7,80.7,63.7,79.8z M77.9,59.9c0-0.7-0.6-1.3-1.3-1.3
			c-0.7,0-1.3,0.6-1.3,1.3s0.6,1.3,1.3,1.3C77.3,61.2,77.9,60.6,77.9,59.9z"/>
		<path class="st29" d="M25.9,67.1l1.6,6.6l0.2,0.7l0.1-0.7l1.7-6.7h1.7l-2.6,9.2h-1.8L25,69.4l-0.1-0.5l-0.1,0.5L23,76.1h-1.8
			L18.6,67h1.7l1.7,6.7l0.1,0.7l0.2-0.7l1.6-6.6H25.9L25.9,67.1z"/>
		<path class="st29" d="M33.2,74.1l-0.7,2h-1.8l3.3-9.2h1.8l3.3,9.2h-1.9L35,69.2l-0.1-0.5l-0.1,0.5l-1.1,3.3l-0.2,0.3l0.2,0h1
			c0.2,0,0.3,0.1,0.5,0.2c0.2,0.1,0.3,0.2,0.4,0.3c0.1,0.2,0.2,0.3,0.3,0.4c0.1,0.2,0.2,0.3,0.2,0.4L33.2,74.1L33.2,74.1z"/>
		<path class="st29" d="M42.9,71.8v4.3h-1.7v-4L38.1,67h2L42.9,71.8z M44.1,67h2l-2.7,4.4c-0.1-0.1-0.2-0.3-0.3-0.4
			c-0.1-0.2-0.2-0.4-0.3-0.5c-0.1-0.2-0.1-0.4-0.1-0.7c0-0.2,0.1-0.4,0.2-0.7L44.1,67z"/>
		<path class="st29" d="M52.1,69.5c0,0.4-0.1,0.8-0.3,1.3s-0.5,0.9-0.8,1.3c-0.3,0.4-0.7,0.9-1,1.3c-0.4,0.4-0.7,0.8-1,1.1l-0.2,0.2
			l0.3,0h3.3v1.4h-5.8v-0.8c0.1-0.3,0.3-0.6,0.5-0.9c0.2-0.3,0.5-0.7,0.8-1c0.3-0.3,0.6-0.7,0.9-1c0.3-0.3,0.5-0.7,0.8-1
			c0.3-0.3,0.4-0.7,0.6-1c0.2-0.3,0.2-0.6,0.2-0.9c0-0.4-0.2-0.7-0.4-0.9c-0.3-0.2-0.6-0.3-1-0.3c-0.2,0-0.4,0-0.7,0.1
			c-0.3,0-0.5,0.2-0.9,0.3l-0.4-1.2c0.4-0.2,0.8-0.3,1.2-0.4c0.4-0.1,0.7-0.1,1-0.1c0.5,0,0.9,0.1,1.3,0.2c0.4,0.1,0.7,0.3,1,0.5
			c0.3,0.2,0.5,0.5,0.7,0.8C52,68.8,52.1,69.1,52.1,69.5z"/>
		<path class="st29" d="M57.8,76.3c-0.8,0-1.5-0.1-2.1-0.4c-0.6-0.3-1.1-0.6-1.5-1c-0.4-0.4-0.7-0.9-0.9-1.5
			c-0.2-0.6-0.3-1.2-0.3-1.9c0-0.7,0.1-1.3,0.3-1.9s0.5-1.1,1-1.5c0.4-0.4,0.9-0.8,1.5-1c0.6-0.3,1.3-0.4,2.1-0.4
			c0.4,0,0.7,0,1.1,0.1c0.4,0.1,0.8,0.2,1.1,0.3l-0.4,1.2c-0.4-0.1-0.7-0.2-0.9-0.2c-0.3-0.1-0.5-0.1-0.8-0.1
			c-0.5,0-0.9,0.1-1.3,0.3c-0.4,0.2-0.7,0.4-0.9,0.8c-0.3,0.3-0.4,0.7-0.5,1.1c-0.1,0.4-0.2,0.8-0.2,1.3s0.1,0.9,0.2,1.3
			c0.1,0.4,0.3,0.8,0.5,1.1c0.3,0.4,0.5,0.6,0.9,0.8c0.4,0.2,0.8,0.3,1.3,0.3c0.5,0,1.1-0.2,1.7-0.4l0.5,1.1
			c-0.4,0.2-0.8,0.3-1.1,0.4C58.5,76.2,58.2,76.3,57.8,76.3z"/>
		<path class="st29" d="M64.4,76.3c-0.5,0-1.1-0.1-1.5-0.3c-0.4-0.2-0.8-0.4-1.2-0.7c-0.3-0.3-0.5-0.7-0.7-1.2
			c-0.2-0.5-0.3-1-0.3-1.6v-5.6h1.8v5.9c0,0.3,0.1,0.7,0.2,0.9c0.1,0.3,0.2,0.5,0.4,0.7s0.4,0.3,0.6,0.4c0.2,0.1,0.5,0.2,0.8,0.2
			c0.3,0,0.5-0.1,0.8-0.2c0.2-0.1,0.4-0.3,0.6-0.4c0.2-0.2,0.3-0.4,0.4-0.7c0.1-0.3,0.2-0.6,0.2-0.9v-5.9h1.8v5.6
			c0,0.5-0.1,1-0.3,1.5c-0.2,0.4-0.4,0.8-0.7,1.2c-0.3,0.3-0.7,0.6-1.2,0.8C65.5,76.2,64.9,76.3,64.4,76.3z"/>
		<path class="st29" d="M43.1,60.7c9.8,0,21.3-4.4,22.5-15.7c0.3-2.5-1.5-12.8-9.1-21.3l-6.7,8.7H36.3l-6.7-8.7
			c-7.5,8.5-9.3,18.8-9.1,21.3C21.8,56.3,33.3,60.7,43.1,60.7"/>
		<path d="M43.9,53.4l1.7-2.5c0.3-0.5,0.2-1.1-0.3-1.4c-0.7-0.4-1.4-0.5-2.2-0.5c-0.8,0-1.6,0.2-2.2,0.5c-0.5,0.3-0.7,0.9-0.3,1.4
			l1.7,2.5C42.7,53.9,43.5,53.9,43.9,53.4z"/>
		<path d="M47.3,56.6c-1.8,0-3.4-1-4.2-2.6c-0.8,1.6-2.4,2.6-4.2,2.6c-1.1,0-2.2-0.4-3.1-1.1c-0.2-0.2-0.2-0.4-0.1-0.5
			c0.2-0.2,0.4-0.2,0.5-0.1c0.7,0.6,1.6,0.9,2.5,0.9c1.9,0,3.4-1.3,3.8-3.2c0-0.2,0.2-0.3,0.4-0.3c0.2,0,0.4,0.2,0.4,0.3
			c0.3,1.9,1.9,3.2,3.8,3.2c0.9,0,1.9-0.3,2.5-0.9c0.2-0.2,0.4-0.1,0.5,0.1c0.2,0.2,0.1,0.4-0.1,0.5C49.5,56.2,48.4,56.6,47.3,56.6z
			"/>
		<path d="M65.2,41c-0.5,0.2-1.1,0.3-1.7,0.4c-5.4,1.3-12.7,2-20.4,2s-15-0.7-20.4-2c-0.6-0.2-1.2-0.3-1.7-0.4
			c-0.1,0.4-0.2,0.8-0.2,1.2c1.1,0.3,2.3,0.5,3.6,0.8c0.3,3.3,3.4,5.9,7.4,6c3.4,0.1,6.3-1.9,7.2-4.5c1.4,0.1,2.7,0.1,4.1,0.1
			c1.1,0,2.3,0,3.4-0.1c0.9,2.6,3.8,4.5,7.2,4.5c3.9-0.1,7.1-2.6,7.4-5.8c1.6-0.3,3-0.6,4.3-0.9C65.4,41.8,65.3,41.4,65.2,41z"/>
	</g>
</g>
</svg>
